<svg xmlns="http://www.w3.org/2000/svg" version="1.1" width="600px" height="600px" viewBox="0 0 200 200" style="overflow:hidden!important;"><g id="svga-group-wrapper"><g id="svga-group-backs-single"><path id="SvgjsPath4164" d="M0 0h200v200H0V0z" fill="#e4c2c1" stroke-width="none" opacity="1" stroke="none"></path></g><g id="svga-group-humanwrap-move" transform="matrix(1,0,0,1,0,0)"><g id="svga-group-humanwrap"><g id="svga-group-hair-back-move" transform="matrix(1,0,0,1,0,0)"><g id="svga-group-hair-back"><path id="SvgjsPath7572" d="m59.7 117.9 3.1 18.6-3.1 20-5.2 16.3-.2 7.8 4.1 2.5h79.2l6.2-3.7v-10.8l-5.1-17.7-.8-18.8 1.8-16.5-68.3 2.3z" fill="#221b23" stroke-width="none" opacity="1"></path></g></g><g id="svga-group-humanbody-back"><path id="SvgjsPath4231" d="m168.2 200-4.6-14.2-34.9-13.4-10.8-9.7-1.4-50.5h-33l-1.4 50.5-10.8 9.7-34.9 13.4-4.6 14.2-3 20h142.4z" fill="#a86741" stroke-width="none" opacity="1" stroke="none"></path><path id="SvgjsPath4232" d="m83.5 112.2-1.4 50.5-10.8 9.7-34.9 13.4-4.6 14.2-3 20H39v-20l1.7-13.3 32.1-12.9 14.1-9.5 2-52.1z" fill="#89431a" stroke-width="none" opacity="1" stroke="none"></path></g><g id="svga-group-chinshadow-single"><path id="SvgjsPath4472" d="m117.6 152.2-1.1-40h-33l-1.2 42.5c6.5 1.9 14.9 3.4 14.9 3.4s13.5-2.4 19.5-5.1c.1 0 .4-.3.9-.8z" fill="#7a340b" stroke-width="none" opacity="1" stroke="none"></path></g><g id="svga-group-humanbody-front"></g><g id="svga-group-clothes-single"><path id="SvgjsPath7239" d="m172.7 220-3.8-19.9-4.5-15-35.7-12.7-8.9 11.4-14 5.6H94.2l-14-5.6-8.9-11.4-35.7 12.7-4.5 15-3.8 19.9z" fill="#b6666f" stroke-width="none" opacity="1" stroke="none"></path><path id="SvgjsPath7240" d="m93.1 193.4-15.9-6.2-7.5-10 6.7 10.8 16.4 6.5 13.7-.1 15.5-7-15.6 6.1H93.1zm-48 .6-5.6-4.6.3-1.1L72.5 174l-1.2-1.5-35.7 12.7-4.5 15-3.8 19.8h8.6l.7-18.3 2.9-12.1 5.3 5.5 9.3 17 1.4 7.9h2.1l-2.6-8.4-9.9-17.6zm110.7.6-9.8 17.7-2.4 7.7h2l1.3-7.2 9.3-17.1 7.2-7.4-7.6 6.3z" fill="#a74d57" stroke-width="none" opacity="1" stroke="none"></path></g><g id="svga-group-head" transform="matrix(1,0,0,1,0,0)"><g id="svga-group-ears-left-move" transform="matrix(1,0,0,1,0,0)"><g id="svga-group-ears-left"><path id="SvgjsPath7531" d="m65.4 98.3-5.3-9.7-7-.9-2 7.2.4 8.9 7 11.4 6.1 4.5 3.8-11.6z" fill="#a86741" stroke-width="none" opacity="1"></path><path id="SvgjsPath7532" d="m59.4 101.2-4.1-9.8-1.9 5.1.4 5 2.6 6.1-1.6-9.4 1.5-.7 1.3 10.8 2 2.1z" fill="#89431a" stroke-width="none" opacity="1"></path><path id="SvgjsPath7533" d="m61.7 101-3.2-11.6-5.4-1.7 7 .9 5.3 9.7 3 9.8-3.8 11.6-6.1-4.5 3.6.7z" fill="#99542c" stroke-width="none" opacity="1"></path></g></g><g id="svga-group-ears-right-move" transform="matrix(1,0,0,1,0,0)"><g id="svga-group-ears-right"><path id="SvgjsPath7534" d="m134.6 98.3 5.3-9.7 7-.9 2 7.2-.4 8.9-7 11.4-6.1 4.5-3.8-11.6z" fill="#a86741" stroke-width="none" opacity="1"></path><path id="SvgjsPath7535" d="m140.6 101.2 4.1-9.8 1.9 5.1-.4 5-2.6 6.1 1.6-9.4-1.5-.7-1.3 10.8-2 2.1z" fill="#89431a" stroke-width="none" opacity="1"></path><path id="SvgjsPath7536" d="m138.3 101 3.2-11.6 5.4-1.7-7 .9-5.3 9.7-3 9.8 3.8 11.6 6.1-4.5-3.6.7z" fill="#99542c" stroke-width="none" opacity="1"></path></g></g><g id="svga-group-faceshape-wrap"><g id="svga-group-faceshape-single"><path id="SvgjsPath4460" d="M136.8 61c-6.7-11.2-19-18.9-19-18.9-7-1.5-17.8-2.2-17.8-2.2s-10.8.8-17.8 2.2c0 0-12.4 7.6-19 18.9 0 0-5 14-5.2 23.9l.7 14.9c2.2 14.2 5.4 25.3 5.4 25.3 4.9 9.4 16.4 20.8 16.4 20.8 6.1 2.6 19.5 5.1 19.5 5.1s13.5-2.4 19.5-5.1c0 0 11.4-11.4 16.4-20.8 0 0 3.2-11.1 5.4-25.3L142 85c-.3-9.9-5.2-24-5.2-24z" fill="#a86741" stroke-width="none" opacity="1" stroke="none"></path><path id="SvgjsPath4461" d="m91.8 141.8 8.6-2 7.7 2-7.8-4.2z" fill="#a05d36" stroke-width="none" opacity="1" stroke="none"></path><path id="SvgjsPath4462" d="M68.1 124c-1.5-5.2-4.9-23.7-4.9-23.7l-.5-16.5c.5-5.2 4.9-22.5 4.9-22.5 2.2-3.5 16-15.3 16-15.3l16.5-3.2 17.7-.7c-7-1.5-17.8-2.2-17.8-2.2s-10.8.8-17.8 2.2c0 0-12.4 7.6-19 18.9 0 0-5 14-5.2 23.9l.7 14.9c2.2 14.2 5.4 25.3 5.4 25.3 4.9 9.4 16.4 20.8 16.4 20.8 6.1 2.6 19.5 5.1 19.5 5.1s-17.3-5.5-18.3-6.5S68.1 124 68.1 124z" fill="#89431a" stroke-width="none" opacity="1" stroke="none"></path></g></g><g id="svga-group-mouth-single-move" transform="matrix(1,0,0,1,0,0)"><g id="svga-group-mouth-single"><path id="SvgjsPath5042" d="m86.12 128.47 10.5-2.08 3.9 2.03 3.33-2.19 11.79 2.28-8.05 7.56-6.99 1.62-6.5-1.54z" fill="#904539" stroke-width="none" opacity="1" transform="translate(0 3)" stroke="none"></path><path id="SvgjsPath5043" d="m84.99 128.26 15.53 3.17 16.59-3.17-16.75 2.36z" fill="#813326" stroke-width="none" opacity="1" transform="translate(0 3)" stroke="none"></path></g></g><g id="svga-group-eyes-left-move" transform="matrix(1,0,0,1,0,0)"><g id="svga-group-eyes-left"><g id="svga-group-eyesback-left"><path id="SvgjsPath5549" d="m91.1 104.4-2.5-6.8-10.9-3.1-7.2 2.1 5.5 8.1z" fill="#ffffff" stroke-width="none" opacity="1"></path></g><g id="svga-group-eyesiriswrapper-left" transform="matrix(1,0,0,1,0,0)"><g id="svga-group-eyesiriscontrol-left" transform="matrix(1,0,0,1,0,0)"><g id="svga-group-eyesiris-left"><path id="SvgjsPath5769" d="m77.8 102.6-.9-5 3.9-3.2 4.7 1.7.8 5-3.8 3.2z" fill="#804618" stroke-width="none" opacity="1" stroke="none"></path><path id="SvgjsPath5770" d="m80.8 94.7 4.5 1.6.8 4.7-3.6 3-4.5-1.6-.8-4.7 3.6-3m-.1-.6-4.1 3.4.9 5.2 5 1.8 4.1-3.4-.9-5.2-5-1.8z" fill="#612b00" stroke-width="none" opacity="1" stroke="none"></path><path id="SvgjsPath5771" d="m78.9 100.2.6-2.8 2.7-.8 2.1 1.9-.5 2.7-2.7.9z" fill="#000000" stroke-width="none" opacity="1"></path><path id="SvgjsPath5772" d="M79.9 97h1.6v1.6h-1.6V97zm2.1 4h.9v.9H82v-.9z" fill="#ffffff" stroke-width="none" opacity="1"></path></g></g></g><g id="svga-group-eyesfront-left"><path id="SvgjsPath5557" d="M68 94.5v11.1l7.7 7.9h10.9l7.7-7.9V94.5l-7.7-7.9H75.7L68 94.5zm2.5 2.1 7.1-2.1 11 3.1 2.5 6.8-15.1.3-5.5-8.1z" fill="#a86741" stroke-width="none" opacity="1" stroke="none"></path><path id="SvgjsPath5558" d="m71.4 96.9 4.9 7.7 7.2-.1-7.5.4-5.9-7.9z" fill="#89431a" stroke-width="none" opacity="1" stroke="none"></path><path id="SvgjsPath5559" d="m91.9 105.9-2.5-9-11-4.6L65 94.7l4.1 2.6h2.5l7-2.5 9.9 2.9 2.2 6.6z" fill="#000000" stroke-width="none" opacity="1" stroke="none"></path></g></g></g><g id="svga-group-eyes-right-move" transform="matrix(1,0,0,1,0,0)"><g id="svga-group-eyes-right"><g id="svga-group-eyesback-right"><path id="SvgjsPath5550" d="m108.9 104.4 2.5-6.8 10.9-3.1 7.2 2.1-5.5 8.1z" fill="#ffffff" stroke-width="none" opacity="1"></path></g><g id="svga-group-eyesiriswrapper-right" transform="matrix(1,0,0,1,0,0)"><g id="svga-group-eyesiriscontrol-right" transform="matrix(1,0,0,1,0,0)"><g id="svga-group-eyesiris-right"><path id="SvgjsPath5773" d="m114.5 102.6-.8-5 3.8-3.2 4.7 1.7.9 5-3.9 3.2z" fill="#804618" stroke-width="none" opacity="1" stroke="none"></path><path id="SvgjsPath5774" d="m117.5 94.7 4.5 1.6.8 4.7-3.6 3-4.5-1.6-.8-4.7 3.6-3m-.1-.6-4.1 3.4.9 5.2 5 1.8 4.1-3.4-.9-5.2-5-1.8z" fill="#612b00" stroke-width="none" opacity="1" stroke="none"></path><path id="SvgjsPath5775" d="m115.7 100.2.5-2.8 2.7-.8 2.2 1.9-.6 2.7-2.7.9z" fill="#000000" stroke-width="none" opacity="1"></path><path id="SvgjsPath5776" d="M116.6 97h1.6v1.6h-1.6V97zm2.1 4h.9v.9h-.9v-.9z" fill="#ffffff" stroke-width="none" opacity="1"></path></g></g></g><g id="svga-group-eyesfront-right"><path id="SvgjsPath5560" d="M124.3 86.6h-10.9l-7.7 7.9v11.1l7.7 7.9h10.9l7.7-7.9V94.5l-7.7-7.9zm-.3 18.1-15.1-.3 2.5-6.8 11-3.1 7.1 2.1-5.5 8.1z" fill="#a86741" stroke-width="none" opacity="1" stroke="none"></path><path id="SvgjsPath5563" d="m128.6 96.9-4.9 7.7-7.2-.1 7.5.4 5.9-7.9z" fill="#89431a" stroke-width="none" opacity="1" stroke="none"></path><path id="SvgjsPath5564" d="m108.1 105.9 2.5-9 11-4.6 13.4 2.4-4.1 2.6h-2.5l-7-2.5-9.9 2.9-2.2 6.6z" fill="#000000" stroke-width="none" opacity="1" stroke="none"></path></g></g></g><g id="svga-group-facehighlight-single"></g><g id="svga-group-eyebrows-left-move" transform="matrix(1,0,0,1,0,0)"><g id="svga-group-eyebrows-left-rotate" transform="matrix(1,1.7453292519943295e-9,-1.7453292519943295e-9,1,1.5158184396568686e-7,-1.3953906830010965e-7)"><g id="svga-group-eyebrows-left"><path id="SvgjsPath5805" d="m93.2 89.1-.6 1.9-2.1 1.2-11.6-5.5-7.1-.1-4.9 3.1 4.3-4.7 7.5-1.4 9.1 2.7z" fill="#2a232b" stroke-width="none" opacity="1"></path><path id="SvgjsPath5806" d="m90 87.5.8.4-.4 2.5-.4-2.9zm-5.5-2.2 1.4 2.4-1.9-2.5.5.1zm3.3 1 .3.2c.2 1.3.5 3.4.5 3.4l-1.4-3.7.6.1zm-5.6-1.6.7 1.3-2-1.7 1.3.4zM71 86.3c-.1 0 0 0 0 0zm-1.7.7c.7-.3 1.3-.6 1.6-.7-.3.2-1.4 1-2.5 1.7l.9-1zm6-2.7 1.6 1.6-2.1-1.5.5-.1zm-4.1.7 1.5-.3 2.3.7c0 .1-2.2-.2-3.8-.4z" fill="#3a353a" stroke-width="none" opacity="1"></path></g></g></g><g id="svga-group-eyebrows-right-move" transform="matrix(1,0,0,1,0,0)"><g id="svga-group-eyebrows-right-rotate" transform="matrix(1,1.7453292519943295e-9,-1.7453292519943295e-9,1,1.5158184396568686e-7,-2.0952678880803433e-7)"><g id="svga-group-eyebrows-right"><path id="SvgjsPath5807" d="m106.8 89.1.6 1.9 2.1 1.2 11.6-5.5 7.1-.1 4.9 3.1-4.3-4.7-7.5-1.4-9.1 2.7z" fill="#2a232b" stroke-width="none" opacity="1"></path><path id="SvgjsPath5808" d="m110 87.5-.8.4.4 2.5.4-2.9zm5.5-2.2-1.4 2.4 1.9-2.5-.5.1zm-3.3 1-.3.2c-.2 1.3-.5 3.4-.5 3.4l1.4-3.7-.6.1zm5.6-1.6-.7 1.3 2-1.7-1.3.4zm11.2 1.6c.1 0 0 0 0 0zm1.7.7c-.7-.3-1.4-.6-1.6-.7.3.2 1.4 1 2.5 1.7l-.9-1zm-6-2.7-1.6 1.6 2.1-1.5-.5-.1zm4.1.7-1.5-.3-2.3.7c0 .1 2.2-.2 3.8-.4z" fill="#3a353a" stroke-width="none" opacity="1"></path></g></g></g><g id="svga-group-nose-single-move" transform="matrix(1,0,0,1,0,0)"><g id="svga-group-nose-single"><path id="SvgjsPath4771" d="m105.55 110.57 3.31 6.99-1.46 2.7-2.53-.2.19-.4 2.63-.9-3.21.2-2.53 3.5H98.06l-2.52-3.5-3.21-.2 2.62.9.2.4-2.53.2-1.46-2.7 3.31-6.99-4.09 7.09 1.95 3.5 3.69-.5 1.85 2.5h4.28l1.84-2.5 3.7.5 1.94-3.5z" fill="#89431a" stroke-width="none" opacity="1" transform="translate(0 2)" stroke="none"></path><path id="SvgjsPath4772" d="m93.56 113.36 2.55 4.19 6.9.11-6.96.45z" fill="#89431a" stroke-width="none" opacity="1" transform="translate(0 2)" stroke="none"></path><path id="SvgjsPath4773" d="m95.6 111.94 1.93 4.42 5.56.17 1.51-4.81z" fill="#b0714d" stroke-width="none" opacity="1" transform="translate(0 2)" stroke="none"></path></g></g><g id="svga-group-hair-front"><path id="SvgjsPath7569" d="m63 100.8-5.7-12.3-1.5-8.4 2-6.4.9-6.2 2.4-1.9.1-6.3 3.1-3.2 2.2-5.2 3.4-.7 2.3-4.3 3.1-.4 3.2-4 6-.1 4.1-2.8 6.2.4 4.8-2.1 5.6 2.5 5.3-1.2 4.6 3.1 5.5-.4 4.1 3.8 3-.1 2.5 4.7 3.8 1.2 1.9 5.5 3.1 1.7.4 7.6 2.5 1.3.2 6.6 2.3 4-.4 10.6-1.2 3.8-4.2 9.2-1-10.7-2.7-2.3.1-8.1-3.2-1.9.1-5.9-3.9-.6-.4-5.4-4.7.8-1.3-4.8-4.6.6-3.6-3.9-4.6.5-4.1-3.3-4.3 2.3-5.3-1.9-3.9 3.2-4.6-.4-3.5 3.3-5-.5-1.3 3.8-4.2 1.8-.1 4-3.9 1.8.4 5.4-3.7 2.9.5 6.3-2.9 3.2z" fill="#322c33" stroke-width="none" opacity="1"></path><path id="SvgjsPath7570" d="M95.1 55c-.5-2.5-.6-5-.7-7.5-.1-2.5 0-5 .3-7.5.5 2.5.6 5 .7 7.5 0 2.4 0 4.9-.3 7.5zm-8.7 3.1c-1.2-2.8-2.1-5.8-2.8-8.8v-.2c.1-2.3.3-4.7.7-7 .2 2.4.3 4.7.3 7.1v-.1c.8 2.9 1.5 5.9 1.8 9zm-8.3 2.7c-.6-1.3-1-2.6-1.3-3.9-.4-1.3-.7-2.7-1-4-.1-2-.2-4.1 0-6.2.5 2 .8 4.1 1 6.1v-.1c.3 1.3.6 2.7.9 4 .1 1.3.3 2.7.4 4.1zM71.9 65c-.5-1.3-.8-2.6-1.2-4-.3-1.3-.6-2.7-.8-4 0-1.9 0-3.8.2-5.7.4 1.9.6 3.8.7 5.7v-.1c.3 1.3.5 2.7.7 4.1.3 1.3.4 2.6.4 4zm-3.8 6.6c-1.3-2.5-2.3-5.2-3.2-7.8-.3-2.2-.5-4.5-.4-6.8.7 2.2 1.1 4.4 1.4 6.7v-.1c.8 2.5 1.7 5.2 2.2 8zm-3.6 8.2c-.9-2.1-1.5-4.3-2.1-6.5-.5-2.2-1-4.4-1.1-6.7.9 2.1 1.5 4.3 2.1 6.5.5 2.1 1 4.4 1.1 6.7zm-2 9.9c-.5-1.3-1-2.5-1.3-3.8-.4-1.3-.8-2.6-1.1-3.9-.7-2.6-1.2-5.2-1.5-7.9 1.1 2.5 1.8 5.1 2.5 7.7.5 2.6 1.1 5.2 1.4 7.9zM104.9 55c.5-2.5.6-5 .7-7.5.1-2.5 0-5-.3-7.5-.5 2.5-.6 5-.7 7.5 0 2.4 0 4.9.3 7.5zm8.7 3.1c1.2-2.8 2.1-5.8 2.8-8.8v-.2c-.1-2.3-.3-4.7-.7-7-.2 2.4-.3 4.7-.3 7.1v-.1c-.8 2.9-1.5 5.9-1.8 9zm8.3 2.7c.6-1.3 1-2.6 1.3-3.9.4-1.3.7-2.7 1-4 .1-2 .2-4.1 0-6.2-.5 2-.8 4.1-1 6.1v-.1c-.3 1.3-.6 2.7-.9 4-.1 1.3-.3 2.7-.4 4.1zm6.2 4.2c.5-1.3.8-2.6 1.2-4 .3-1.3.6-2.7.8-4 0-1.9 0-3.8-.2-5.7-.4 1.9-.6 3.8-.7 5.7v-.1c-.3 1.3-.5 2.7-.7 4.1-.3 1.3-.4 2.6-.4 4zm3.8 6.6c1.3-2.5 2.3-5.2 3.2-7.8.3-2.2.5-4.5.4-6.8-.6 2.2-1.1 4.4-1.4 6.7v-.1c-.8 2.5-1.7 5.2-2.2 8zm3.6 8.2c.9-2.1 1.5-4.3 2.1-6.5.5-2.2 1-4.4 1.1-6.7-.9 2.1-1.5 4.3-2.1 6.5-.5 2.1-1 4.4-1.1 6.7zm2 9.9c.5-1.3.9-2.5 1.3-3.8.4-1.3.8-2.6 1.1-3.9.7-2.6 1.2-5.2 1.6-7.9-1.1 2.5-1.8 5.1-2.5 7.7-.6 2.6-1.2 5.2-1.5 7.9zm-75.6 75.4-3 17.4 2.6 13.4 3.1 2.9 5.3-.7.7-4.9-3.5-13 1.5-18.2.3 17.7 5.3 17.9s4.2 1.2 4.3.8 2.8-2.4 2.8-2.4l-1.5-11-5.4-21.2-2.2-18.8-7.9-3-2.4 23.1zm62.5-18.5-3 22.2-.7 12.2 1.1 5.7 3.7.8 2.9-4.2-.1-8.8-.6-7.1s-.6-5.2-.3-4.4c.3.8 3 15.1 3 15.1l-1.6 14.4 2.6 3.8 2.3.5 2.2-2.6 1.2-7.1.3 7.5 1.2 2.7 2.9.3 2.6-2.7-.1-9.2-.3-7.7-.4-7.7-5.5-17.7-.3-15.9-5.1 8-5.4 1.9h-2.6z" fill="#221b23" stroke-width="none" opacity="1"></path><path id="SvgjsPath7571" d="M66.1 142.2c-.1 2.9-.3 5.9-.7 8.8-.3 2.9-.8 5.8-1.2 8.7-.3 1.4-.5 2.9-.7 4.3-.3 1.4-.5 2.9-.8 4.3-.6 2.9-1.2 5.7-2.1 8.5 0-2.9.2-5.9.5-8.8.3-2.9.6-5.8 1.1-8.7.5-2.9 1-5.7 1.7-8.6.6-2.9 1.3-5.7 2.2-8.5zm2.7 2.8c0 3.4 1 16.2.8 19.6v-.1l1.1 15.6v-.2c.7 2.6 1.4 5.3 2 7.9.6 2.6 1.2 5.3 1.8 8-1-2.5-2-5.1-2.9-7.7-.9-2.6-1.8-5.2-2.6-7.8v-.2c-.3-2.6-.6-5.2-.8-7.8-.2-2.6-.3-5.2-.5-7.9v-.2c.4-3.1.5-15.9 1.1-19.2zm56.3 2.3c.4 2.6-.2 6.2 0 8.8.2 2.6-1.3 5.4-1.2 8 0 2.6-.2 5.2-.3 7.8-.2 2.6-.4 5.2-.7 7.8v-.1c.2 1.8.5 3.6.6 5.3-.6-1.7-1.2-3.4-1.7-5.1v-.1c-.1-2.6-.1-5.2-.1-7.8.1-2.7 3.1-22 3.4-24.6zm2.5-2.8c.3 1.9.6 3.8.9 5.6.2 1.9.5 3.8.7 5.6.4 3.8.8 7.5 1.1 11.3v-.2c.5 1.8 1 3.7 1.4 5.5.5 1.8.9 3.7 1.4 5.5l.1.2v.2c-.4 2.1-.8 4.1-1.2 6.2-.4 2.1-.9 4.1-1.4 6.2v-.1l.9 3c-.5-.9-1-1.9-1.4-2.8v-.2l.6-6.3c.3-2.1.5-4.2.8-6.3v.4c-.5-1.8-1.1-3.6-1.5-5.5-.5-1.8-1-3.7-1.5-5.5v-.2c-.3-3.8-.5-7.6-.6-11.3-.1-1.9-.1-3.8-.2-5.7-.2-1.8-.2-3.7-.1-5.6zm5.8 13.1c.5 1.7.9 3.4 1.2 5.1.4 1.7.7 3.4 1 5.2v-.1c.6 1.6 1.2 3.2 1.7 4.7.5 1.6 1.1 3.2 1.6 4.8l.1.1v.1l.1 3.8v3.8c0 2.5 0 5-.1 7.6v-.1c.3 1.3.5 2.6.8 3.9-.6-1.2-1.1-2.4-1.6-3.6v-.1c-.3-2.5-.5-5-.7-7.5l-.2-3.8-.2-3.8.1.3c-.5-1.6-1-3.2-1.6-4.8-.5-1.6-1-3.2-1.4-4.8v-.1c-.2-1.8-.3-3.5-.4-5.3-.3-1.9-.4-3.7-.4-5.4zm3.7-21.1c.6 5.4.9 10.7 1.2 16.1v-.2l1.5 4.4c.5 1.5 1 2.9 1.4 4.4.9 2.9 1.9 5.9 2.8 8.9l.1.1v.1c0 1.8-.1 3.6-.1 5.4 0 1.8-.1 3.6-.2 5.4-.1 3.6-.4 7.2-.6 10.8v.1l-1.2 2.3.8-2.4v.1c-.2-3.6-.4-7.2-.4-10.8 0-1.8-.1-3.6-.1-5.4 0-1.8-.1-3.6 0-5.4v.3c-.9-2.9-1.9-5.9-2.8-8.9-.4-1.5-.9-3-1.3-4.4l-1.3-4.5v-.2c-.2-5.4-.1-10.8.2-16.2zm-64.8 16.7c.1 2.5 1.8 10.9 1.7 13.3l1.1 3 1.1 3.1c.4 1 .7 2.1 1 3.1.3 1.1.7 2.1 1 3.2.3 1.1.6 2.1.9 3.2v.1c.2 1.6.4 3.3.5 5 .1 1.7.2 3.3.3 5-.5-1.6-.9-3.2-1.3-4.8-.4-1.6-.8-3.2-1.1-4.9v.1c-.4-1-.8-2.1-1.1-3.1-.4-1-.7-2.1-1.1-3.1s-.7-2.1-1.1-3.1l-1-3.2-.1-.2-.8-3.2c.3-2.5-.5-11.1 0-13.5z" fill="#3a353a" stroke-width="none" opacity="1"></path></g><g id="svga-group-glasses-single-move" transform="matrix(1,0,0,1,0,0)"><g id="svga-group-glasses-single"></g></g></g></g></g><rect id="svga-credit-rect" width="200" height="15" x="0" y="185" fill="#ecf0f1" opacity="0.5" style="display: none;"></rect><text id="svga-credit-text" font-family="Avenir Next, Roboto, Helvetica, Arial, sans-serif" font-size="10px" text-anchor="start" font-weight="400" size="10px" anchor="start" weight="400" fill="#333333" x="33.40447998046875" y="182.60824704170227" style="display: none;"><tspan id="SvgjsTspan4163" dy="13" x="33.40447998046875">Created on AvatarMaker.com</tspan></text></g><defs id="SvgjsDefs4115"></defs></svg>